<?xml version="1.0" encoding="UTF-8" standalone="no"?>
<svg width="21px" height="21px" viewBox="0 0 21 21" version="1.1" xmlns="http://www.w3.org/2000/svg" xmlns:xlink="http://www.w3.org/1999/xlink">
    <!-- Generator: Sketch 43.2 (39069) - http://www.bohemiancoding.com/sketch -->
    <title>add-circle</title>
    <desc>Created with Sketch.</desc>
    <defs></defs>
    <g id="Datalyst-Screens" stroke="none" stroke-width="1" fill="none" fill-rule="evenodd">
        <g id="01440.FW_PJT_GWD_GroundWaterSampling_Portait-" transform="translate(-541.000000, -354.000000)" fill="#008DD6">
            <g id="add-circle" transform="translate(541.000000, 354.000000)">
                <path d="M10.2857143,0 C4.62857143,0 0,4.62857143 0,10.2857143 C0,15.9428571 4.62857143,20.5714286 10.2857143,20.5714286 C15.9428571,20.5714286 20.5714286,15.9428571 20.5714286,10.2857143 C20.5714286,4.62857143 15.9428571,0 10.2857143,0 L10.2857143,0 Z M15.4285714,11.3142857 L11.3142857,11.3142857 L11.3142857,15.4285714 L9.25714286,15.4285714 L9.25714286,11.3142857 L5.14285714,11.3142857 L5.14285714,9.25714286 L9.25714286,9.25714286 L9.25714286,5.14285714 L11.3142857,5.14285714 L11.3142857,9.25714286 L15.4285714,9.25714286 L15.4285714,11.3142857 L15.4285714,11.3142857 Z" id="Shape"></path>
            </g>
        </g>
    </g>
</svg>