<?xml version="1.0" encoding="UTF-8" standalone="no"?>
<svg width="15px" height="15px" viewBox="0 0 15 15" version="1.1" xmlns="http://www.w3.org/2000/svg" xmlns:xlink="http://www.w3.org/1999/xlink">
    <!-- Generator: Sketch 43.2 (39069) - http://www.bohemiancoding.com/sketch -->
    <title>Calendar Alert Copy</title>
    <desc>Created with Sketch.</desc>
    <defs></defs>
    <g id="Datalyst-Screens" stroke="none" stroke-width="1" fill="none" fill-rule="evenodd">
        <g id="00140.AllRoles_Dashboard-v5-Copy" transform="translate(-119.000000, -99.000000)" fill="#9B9B9B">
            <path d="M129.869324,101.764646 L130.954596,101.764646 L130.954596,99 L129.869324,99 L129.869324,101.764646 Z M122.89258,101.764646 L123.977852,101.764646 L123.977852,99 L122.89258,99 L122.89258,101.764646 Z M121.497231,112.010101 L132.349945,112.010101 L132.349945,105.505051 L121.497231,105.505051 L121.497231,112.010101 Z M132.349945,100.626263 L131.65227,100.626263 L131.65227,102.252525 L129.17165,102.252525 L129.17165,100.626263 L124.675526,100.626263 L124.675526,102.252525 L122.194906,102.252525 L122.194906,100.626263 L121.497231,100.626263 C120.644518,100.626263 119.946844,101.358081 119.946844,102.252525 L119.946844,112.010101 C119.946844,112.904545 120.644518,113.636364 121.497231,113.636364 L132.349945,113.636364 C133.202658,113.636364 133.900332,112.904545 133.900332,112.010101 L133.900332,102.252525 C133.900332,101.358081 133.202658,100.626263 132.349945,100.626263 L132.349945,100.626263 Z" id="Calendar-Alert-Copy"></path>
        </g>
    </g>
</svg>