<?xml version="1.0" encoding="UTF-8" standalone="no"?>
<svg width="17px" height="15px" viewBox="0 0 17 15" version="1.1" xmlns="http://www.w3.org/2000/svg" xmlns:xlink="http://www.w3.org/1999/xlink">
    <!-- Generator: Sketch 43.2 (39069) - http://www.bohemiancoding.com/sketch -->
    <title>Certification Alert Copy</title>
    <desc>Created with Sketch.</desc>
    <defs></defs>
    <g id="Datalyst-Screens" stroke="none" stroke-width="1" fill="none" fill-rule="evenodd">
        <g id="00140.AllRoles_Dashboard-v5-Copy" transform="translate(-119.000000, -192.000000)" stroke="#979797" stroke-width="0.5" fill="#9B9B9B">
            <path d="M121.972153,205.069794 C121.816024,205.228808 121.816024,205.486749 121.972003,205.645762 L122.685994,206.3507 C122.842273,206.50941 123.089978,206.442952 123.246107,206.283939 L126.929853,202.623298 L125.800769,201.324944 L121.972153,205.069794 Z M134.855057,194.70496 C134.799211,194.330186 134.606902,194.409541 134.50767,194.568251 C134.408438,194.727264 133.966472,195.403525 133.784972,195.709868 C133.604373,196.01439 133.160756,196.613421 132.333422,196.021825 C131.471559,195.405953 131.771207,194.976405 131.921781,194.686904 C132.072206,194.396644 132.535639,193.582916 132.602444,193.480801 C132.669099,193.378687 132.591335,193.080841 132.323964,193.205715 C132.056143,193.330589 130.430298,193.983938 130.204511,194.919658 C129.974521,195.873433 130.397571,196.724639 129.566484,197.570838 L128.559,198.633252 L129.570987,199.822512 L130.813115,198.630976 C131.10931,198.330095 131.740582,198.038318 132.312705,198.169261 C133.538468,198.44981 134.206971,197.984302 134.609904,197.215486 C134.970353,196.52739 134.910753,195.079885 134.855057,194.70496 L134.855057,194.70496 Z M126.553492,197.752762 C126.463718,197.647917 126.352476,197.645337 126.255045,197.73152 L125.178505,198.680743 C125.093985,198.756002 125.082876,198.896048 125.158538,198.984204 L131.384187,206.144043 C131.529507,206.313678 131.782166,206.331582 131.948353,206.1841 L132.677056,205.567773 C132.842943,205.420291 132.860358,205.162805 132.715338,204.993171 L126.553492,197.752762 Z M122.268498,197.360843 C122.969128,196.811125 123.549958,197.189995 124.3258,198.097038 C124.413022,198.198697 124.530269,198.079892 124.596624,198.020869 C124.662978,197.961998 125.686225,197.032044 125.736066,196.988042 C125.786057,196.943737 125.846407,196.860589 125.766541,196.767427 C125.687125,196.673961 125.395734,196.293422 125.20928,196.046861 C123.852158,194.252501 128.922151,193.035929 128.143006,193.016204 C127.746979,193.006038 126.156864,192.987375 125.919668,193.012714 C124.955871,193.116042 123.747221,194.025361 123.138318,194.448384 C122.34281,195.000985 122.045114,195.323108 121.995422,195.36711 C121.770536,195.56618 121.959243,196.025467 121.551355,196.386433 C121.119598,196.769703 120.850576,196.480809 120.601069,196.701728 C120.476616,196.812491 120.13043,197.074529 120.030898,197.162836 C119.931065,197.251446 119.913351,197.401052 120.014835,197.519856 C120.014835,197.519856 120.963319,198.579388 121.043335,198.672247 C121.122901,198.766016 121.336528,198.844915 121.469237,198.726869 C121.602397,198.608975 121.943179,198.30688 122.001127,198.254837 C122.059676,198.203704 121.962996,197.600425 122.268498,197.360843 L122.268498,197.360843 Z" id="Certification-Alert-Copy"></path>
        </g>
    </g>
</svg>