<?xml version="1.0" encoding="UTF-8" standalone="no"?>
<svg width="15px" height="13px" viewBox="0 0 15 13" version="1.1" xmlns="http://www.w3.org/2000/svg" xmlns:xlink="http://www.w3.org/1999/xlink">
    <!-- Generator: Sketch 43.2 (39069) - http://www.bohemiancoding.com/sketch -->
    <title>Certification Alert</title>
    <desc>Created with Sketch.</desc>
    <defs></defs>
    <g id="Datalyst-Screens" stroke="none" stroke-width="1" fill="none" fill-rule="evenodd">
        <g id="00125.AllRoles_Dashboard-Portrait" transform="translate(-403.000000, -182.000000)" stroke="#979797" stroke-width="0.5" fill="#9B9B9B">
            <path d="M405.630401,193.460495 C405.494638,193.598307 405.494638,193.821856 405.63027,193.959667 L406.251125,194.570613 C406.387018,194.708162 406.602411,194.650565 406.738174,194.512754 L409.941396,191.340199 L408.959595,190.214958 L405.630401,193.460495 Z M416.832802,184.477639 C416.78424,184.152835 416.617017,184.221609 416.530729,184.359158 C416.444441,184.496969 416.060128,185.083062 415.902303,185.348559 C415.745262,185.612479 415.359513,186.131638 414.6401,185.618922 C413.890662,185.085166 414.151222,184.712891 414.282155,184.46199 C414.412958,184.210432 414.815939,183.5052 414.87403,183.416701 C414.93199,183.328202 414.86437,183.070069 414.631875,183.178293 C414.39899,183.286517 412.985228,183.852753 412.788894,184.66371 C412.588904,185.490316 412.95677,186.228027 412.234093,186.9614 L411.35803,187.882158 L412.238009,188.912851 L413.318108,187.880186 C413.575666,187.619423 414.124592,187.366549 414.622085,187.480033 C415.687955,187.723176 416.269255,187.319735 416.619628,186.653428 C416.933057,186.057078 416.881232,184.802574 416.832802,184.477639 L416.832802,184.477639 Z M409.614129,187.119067 C409.536066,187.028201 409.439335,187.025966 409.354613,187.100657 L408.418502,187.923318 C408.345007,187.988542 408.335347,188.109915 408.40114,188.186317 L413.814687,194.391511 C413.941051,194.538527 414.160752,194.554044 414.305261,194.426227 L414.938909,193.892076 C415.083157,193.764259 415.0983,193.541104 414.972197,193.394088 L409.614129,187.119067 Z M405.888089,186.779404 C406.497326,186.302982 407.00239,186.631336 407.677027,187.41744 C407.752872,187.505544 407.854824,187.40258 407.912524,187.351427 C407.970223,187.300405 408.859992,186.494445 408.903332,186.45631 C408.946802,186.417912 408.99928,186.345851 408.929832,186.26511 C408.860776,186.184107 408.607395,185.854306 408.445263,185.640619 C407.265169,184.085507 411.67381,183.031145 410.996301,183.01405 C410.651933,183.00524 409.269239,182.989065 409.062984,183.011026 C408.224909,183.100577 407.173921,183.888653 406.644446,184.255273 C405.952707,184.734194 405.693844,185.013367 405.650635,185.051502 C405.455084,185.224029 405.619174,185.622078 405.264494,185.934915 C404.889057,186.267083 404.655127,186.016708 404.438167,186.208171 C404.329949,186.304165 404.02892,186.531265 403.942371,186.607798 C403.855562,186.684593 403.840158,186.814252 403.928404,186.917216 C403.928404,186.917216 404.753163,187.835476 404.822742,187.915954 C404.891929,187.99722 405.077689,188.0656 405.193088,187.963294 C405.308878,187.861119 405.605206,187.599303 405.655595,187.554199 C405.706506,187.509884 405.622438,186.987042 405.888089,186.779404 L405.888089,186.779404 Z" id="Certification-Alert"></path>
        </g>
    </g>
</svg>