<?xml version="1.0" encoding="utf-8"?>
<!-- Generator: Adobe Illustrator 18.0.0, SVG Export Plug-In . SVG Version: 6.00 Build 0)  -->
<!DOCTYPE svg PUBLIC "-//W3C//DTD SVG 1.1//EN" "http://www.w3.org/Graphics/SVG/1.1/DTD/svg11.dtd">
<svg version="1.1" id="Layer_1" xmlns="http://www.w3.org/2000/svg" xmlns:xlink="http://www.w3.org/1999/xlink" x="0px" y="0px"
	 viewBox="0 0 22 21" enable-background="new 0 0 22 21" xml:space="preserve">
<title>Group 4</title>
<desc>Created with Sketch.</desc>
<g id="Symbols">
	<g id="Menu" transform="translate(-29.000000, -227.000000)">
		<g id="Group-4" transform="translate(29.000000, 227.000000)">
			<g id="brief">
				<path id="XMLID_2_" fill="#F6A623" d="M11.8,15v1.4h-1.5V15H0v3.7c0,1.2,1,2.2,2.2,2.2h17.6c1.2,0,2.2-1,2.2-2.2V15H11.8z"/>
				<path id="XMLID_9_" fill="#F6A623" d="M10.2,14v-1.1h1.5V14H22V6.6c0-1.2-1-2.2-2.2-2.2h-4.4V2.2L13.2,0H8.8L6.6,2.2v2.2H2.2
					C1,4.4,0,5.4,0,6.6V14H10.2z M8.8,2.2h4.4v2.2H8.8V2.2z"/>
			</g>
		</g>
	</g>
</g>
</svg>
