<?xml version="1.0" encoding="UTF-8" standalone="no"?>
<svg width="24px" height="20px" viewBox="0 0 24 20" version="1.1" xmlns="http://www.w3.org/2000/svg" xmlns:xlink="http://www.w3.org/1999/xlink">
    <!-- Generator: Sketch 43.2 (39069) - http://www.bohemiancoding.com/sketch -->
    <title>folder-multiple-image</title>
    <desc>Created with Sketch.</desc>
    <defs></defs>
    <g id="Symbols" stroke="none" stroke-width="1" fill="none" fill-rule="evenodd">
        <g id="Menu" transform="translate(-28.000000, -292.000000)" fill-rule="nonzero" fill="#CCCCCC">
            <g id="folder-multiple-image" transform="translate(28.000000, 292.000000)">
                <path d="M7,13 L11.5,7 L15,11.5 L17.5,8.5 L21,13 L7,13 Z M22,2 L14,2 L12,0 L6,0 C4.8954305,0 4,0.8954305 4,2 L4,14 C4,15.1045695 4.8954305,16 6,16 L22,16 C23.1045695,16 24,15.1045695 24,14 L24,4 C24,2.8954305 23.1045695,2 22,2 L22,2 Z M2,4 L0,4 L0,9 L0,9 L0,18 C1.3527075e-16,19.1045695 0.8954305,20 2,20 L20,20 L20,18 L2,18 L2,4 Z" id="Shape"></path>
            </g>
        </g>
    </g>
</svg>