<?xml version="1.0" encoding="utf-8"?>
<!-- Generator: Adobe Illustrator 18.0.0, SVG Export Plug-In . SVG Version: 6.00 Build 0)  -->
<!DOCTYPE svg PUBLIC "-//W3C//DTD SVG 1.1//EN" "http://www.w3.org/Graphics/SVG/1.1/DTD/svg11.dtd">
<svg version="1.1" id="Layer_1" xmlns="http://www.w3.org/2000/svg" xmlns:xlink="http://www.w3.org/1999/xlink" x="0px" y="0px"
	 viewBox="0 0 24 20" enable-background="new 0 0 24 20" xml:space="preserve">
<title>folder-multiple-image</title>
<desc>Created with Sketch.</desc>
<g id="Symbols">
	<g id="Menu" transform="translate(-28.000000, -292.000000)">
		<g id="folder-multiple-image" transform="translate(28.000000, 292.000000)">
			<path id="Shape" fill="#F6A623" d="M7,13l4.5-6l3.5,4.5l2.5-3L21,13H7z M22,2h-8l-2-2H6C4.9,0,4,0.9,4,2v12c0,1.1,0.9,2,2,2h16
				c1.1,0,2-0.9,2-2V4C24,2.9,23.1,2,22,2L22,2z M2,4H0v5l0,0v9c0,1.1,0.9,2,2,2h18v-2H2V4z"/>
		</g>
	</g>
</g>
</svg>
