<?xml version="1.0" encoding="utf-8"?>
<!-- Generator: Adobe Illustrator 18.0.0, SVG Export Plug-In . SVG Version: 6.00 Build 0)  -->
<!DOCTYPE svg PUBLIC "-//W3C//DTD SVG 1.1//EN" "http://www.w3.org/Graphics/SVG/1.1/DTD/svg11.dtd">
<svg version="1.1" id="Layer_1" xmlns="http://www.w3.org/2000/svg" xmlns:xlink="http://www.w3.org/1999/xlink" x="0px" y="0px"
	 viewBox="0 0 22 24" enable-background="new 0 0 22 24" xml:space="preserve">
<title>google-maps</title>
<desc>Created with Sketch.</desc>
<g id="Symbols">
	<g id="Menu" transform="translate(-29.000000, -358.000000)">
		<g id="google-maps" transform="translate(29.000000, 358.000000)">
			<path id="Shape" fill="#F6A623" d="M2.4,2.4C1.1,2.4,0,3.5,0,4.9v12.6l10-10C9.9,6.8,9.8,6.2,9.8,5.5c0-1.1,0.2-2.2,0.7-3.1H2.4
				L2.4,2.4z M18.3,23.2c1.4,0,2.4-1.1,2.4-2.4v-8.7c-0.9,1.4-2.1,2.9-3.3,4.4l-1,1.2l-1-1.2c-1.6-2-3.1-3.9-4.1-5.6
				c-0.4-0.7-0.8-1.4-1.1-2.1l-5,5l9.5,9.5H18.3L18.3,23.2z M0,20.8c0,1.4,1.1,2.4,2.4,2.4h10.7l-8.6-8.6L0,19.2V20.8L0,20.8z
				 M16.5,15.9C19.7,11.8,22,8.7,22,5.6C22,2.5,19.6,0,16.5,0S11,2.5,11,5.6C11,8.7,13.3,11.8,16.5,15.9L16.5,15.9z M18.9,5.5
				c0,1.4-1.1,2.4-2.4,2.4s-2.4-1.1-2.4-2.4s1.1-2.4,2.4-2.4S18.9,4.1,18.9,5.5z"/>
		</g>
	</g>
</g>
</svg>
