<?xml version="1.0" encoding="UTF-8" standalone="no"?>
<svg width="22px" height="24px" viewBox="0 0 22 24" version="1.1" xmlns="http://www.w3.org/2000/svg" xmlns:xlink="http://www.w3.org/1999/xlink">
    <!-- Generator: Sketch 43.2 (39069) - http://www.bohemiancoding.com/sketch -->
    <title>google-maps</title>
    <desc>Created with Sketch.</desc>
    <defs></defs>
    <g id="Symbols" stroke="none" stroke-width="1" fill="none" fill-rule="evenodd">
        <g id="Menu" transform="translate(-29.000000, -358.000000)" fill-rule="nonzero" fill="#CCCCCC">
            <g id="google-maps" transform="translate(29.000000, 358.000000)">
                <path d="M2.44444444,2.44444444 C1.09441506,2.44444444 0,3.5388595 0,4.88888889 L0,17.4655556 L9.99777778,7.46777778 C9.85111111,6.83222222 9.77777778,6.19666667 9.77777778,5.53666667 C9.77777778,4.42444444 10.0222222,3.37333333 10.4988889,2.44444444 L2.44444444,2.44444444 L2.44444444,2.44444444 Z M18.3333333,23.2222222 C19.6833627,23.2222222 20.7777778,22.1278072 20.7777778,20.7777778 L20.7777778,12.0511111 C19.8488889,13.4444444 18.7122222,14.9233333 17.4655556,16.5 L16.5,17.7222222 L15.5466667,16.5 C13.9211111,14.4833333 12.4911111,12.6133333 11.4766667,10.89 C11.0611111,10.1811111 10.7066667,9.48444444 10.4255556,8.77555556 L5.45111111,13.75 L14.9233333,23.2222222 L18.3333333,23.2222222 L18.3333333,23.2222222 Z M0,20.7777778 C0,22.1278072 1.09441506,23.2222222 2.44444444,23.2222222 L13.1877778,23.2222222 L4.58333333,14.6177778 L0,19.2011111 L0,20.7777778 L0,20.7777778 Z M16.5,15.8888889 C19.69,11.77 22,8.67777778 22,5.58555556 C22,2.50555556 19.5555556,0 16.5,0 C13.4444444,0 11,2.50555556 11,5.58555556 C11,8.67777778 13.2855556,11.77 16.5,15.8888889 L16.5,15.8888889 Z M18.9444444,5.5 C18.9444444,6.85002939 17.8500294,7.94444444 16.5,7.94444444 C15.1499706,7.94444444 14.0555556,6.85002939 14.0555556,5.5 C14.0555556,4.14997061 15.1499706,3.05555556 16.5,3.05555556 C17.8500294,3.05555556 18.9444444,4.14997061 18.9444444,5.5 Z" id="Shape"></path>
            </g>
        </g>
    </g>
</svg>