<?xml version="1.0" encoding="UTF-8" standalone="no"?>
<svg width="24px" height="23px" viewBox="0 0 24 23" version="1.1" xmlns="http://www.w3.org/2000/svg" xmlns:xlink="http://www.w3.org/1999/xlink">
    <!-- Generator: Sketch 43.2 (39069) - http://www.bohemiancoding.com/sketch -->
    <title>Group 5</title>
    <desc>Created with Sketch.</desc>
    <defs></defs>
    <g id="Symbols" stroke="none" stroke-width="1" fill="none" fill-rule="evenodd">
        <g id="Menu" transform="translate(-28.000000, -90.000000)">
            <g id="Group-5" transform="translate(28.000000, 90.000000)">
                <g id="projects">
                    <path d="M12.3428571,8.91428571 L21.6,8.91428571" id="XMLID_5_" stroke="#CCCCCC"></path>
                    <path d="M12.2285714,6.85714286 L19.6571429,6.85714286" id="XMLID_2_" stroke="#CCCCCC"></path>
                    <path d="M12.4571429,11.3142857 L21.6,11.3142857" id="XMLID_10_" stroke="#010202"></path>
                    <path d="M11.4285714,8.57142857 L11.4285714,2.17142857 C11.4285714,1.6 11.8857143,1.25714286 12.3428571,1.25714286 L18.1714286,1.25714286 L22.4,5.48571429 L22.4,9.37142857 C22.7428571,9.48571429 23.2,9.6 23.5428571,9.71428571 L23.5428571,5.02857143 L18.6285714,0.114285714 L12.2285714,0.114285714 C11.0857143,0.114285714 10.1714286,1.02857143 10.1714286,2.17142857 L10.1714286,7.42857143 L11.4285714,8.57142857 Z" id="XMLID_3_" fill="#CCCCCC" fill-rule="nonzero"></path>
                    <polyline id="XMLID_1_" fill="#CCCCCC" fill-rule="nonzero" points="18.1714286 1.25714286 18.1714286 5.48571429 22.5142857 5.48571429"></polyline>
                    <path d="M21.4857143,10.4 L12.3428571,10.4 L8.91428571,6.97142857 L3.2,6.97142857 C1.94285714,6.97142857 0.914285714,8 0.914285714,9.25714286 L0.914285714,20.6857143 C0.914285714,21.9428571 1.94285714,22.9714286 3.2,22.9714286 L21.4857143,22.9714286 C22.7428571,22.9714286 23.7714286,21.9428571 23.7714286,20.6857143 L23.7714286,12.6857143 C23.7714286,11.3142857 22.7428571,10.4 21.4857143,10.4 Z M14.8571429,15.7714286 L13.7142857,16.8 L13.6,16.9142857 L13.8285714,18.4 C13.8285714,18.5142857 13.7142857,18.6285714 13.6,18.6285714 L12.3428571,17.9428571 L12.1142857,17.9428571 L10.7428571,18.5142857 C10.6285714,18.6285714 10.4,18.4 10.5142857,18.2857143 L10.8571429,16.9142857 L10.8571429,16.8 L9.82857143,15.7714286 C9.71428571,15.6571429 9.82857143,15.4285714 9.94285714,15.4285714 L11.4285714,15.3142857 C11.5428571,15.3142857 11.5428571,15.3142857 11.5428571,15.2 L12.2285714,13.9428571 C12.3428571,13.8285714 12.4571429,13.8285714 12.5714286,13.9428571 L13.1428571,15.3142857 L13.2571429,15.4285714 L14.7428571,15.6571429 C14.9714286,15.4285714 14.9714286,15.6571429 14.8571429,15.7714286 Z" id="XMLID_11_" fill="#CCCCCC" fill-rule="nonzero"></path>
                </g>
            </g>
        </g>
    </g>
</svg>