<?xml version="1.0" encoding="utf-8"?>
<!-- Generator: Adobe Illustrator 18.0.0, SVG Export Plug-In . SVG Version: 6.00 Build 0)  -->
<!DOCTYPE svg PUBLIC "-//W3C//DTD SVG 1.1//EN" "http://www.w3.org/Graphics/SVG/1.1/DTD/svg11.dtd">
<svg version="1.1" id="Layer_1" xmlns="http://www.w3.org/2000/svg" xmlns:xlink="http://www.w3.org/1999/xlink" x="0px" y="0px"
	 viewBox="0 0 24 23" enable-background="new 0 0 24 23" xml:space="preserve">
<title>Group 5</title>
<desc>Created with Sketch.</desc>
<g id="projects">
	<path id="XMLID_5_" fill="#CCCCCC" stroke="#F6A623" d="M12.3,8.9h9.3"/>
	<path id="XMLID_2_" fill="#CCCCCC" stroke="#F6A623" d="M12.2,6.9h7.4"/>
	<path id="XMLID_10_" fill="#F6A623" stroke="#010202" d="M12.5,11.3h9.1"/>
	<path id="XMLID_3_" fill="#F6A623" d="M11.4,8.6V2.2c0-0.6,0.5-0.9,0.9-0.9h5.8l4.2,4.2v3.9c0.3,0.1,0.8,0.2,1.1,0.3V5l-4.9-4.9
		h-6.4c-1.1,0-2.1,0.9-2.1,2.1v5.3L11.4,8.6z"/>
	<polyline id="XMLID_1_" fill="#F6A623" points="18.2,1.3 18.2,5.5 22.5,5.5 	"/>
	<path id="XMLID_11_" fill="#F6A623" d="M21.5,10.4h-9.1L8.9,7H3.2C1.9,7,0.9,8,0.9,9.3v11.4c0,1.3,1,2.3,2.3,2.3h18.3
		c1.3,0,2.3-1,2.3-2.3v-8C23.8,11.3,22.7,10.4,21.5,10.4z M14.9,15.8l-1.1,1l-0.1,0.1l0.2,1.5c0,0.1-0.1,0.2-0.2,0.2l-1.3-0.7h-0.2
		l-1.4,0.6c-0.1,0.1-0.3-0.1-0.2-0.2l0.3-1.4v-0.1l-1-1c-0.1-0.1,0-0.3,0.1-0.3l1.5-0.1c0.1,0,0.1,0,0.1-0.1l0.7-1.3
		c0.1-0.1,0.2-0.1,0.3,0l0.6,1.4l0.1,0.1l1.5,0.2C15,15.4,15,15.7,14.9,15.8z"/>
</g>
</svg>
