<?xml version="1.0" encoding="UTF-8" standalone="no"?>
<svg width="23px" height="23px" viewBox="0 0 23 23" version="1.1" xmlns="http://www.w3.org/2000/svg" xmlns:xlink="http://www.w3.org/1999/xlink">
    <!-- Generator: Sketch 44.1 (41455) - http://www.bohemiancoding.com/sketch -->
    <title>Group</title>
    <desc>Created with Sketch.</desc>
    <defs></defs>
    <g id="Page-1" stroke="none" stroke-width="1" fill="none" fill-rule="evenodd">
        <g id="Group">
            <path d="M11.3428571,8.91428571 L20.6,8.91428571" id="XMLID_5_" stroke="#CCCCCC"></path>
            <path d="M11.2285714,6.85714286 L18.6571429,6.85714286" id="XMLID_2_" stroke="#CCCCCC"></path>
            <path d="M11.4571429,11.3142857 L20.6,11.3142857" id="XMLID_10_" stroke="#010202"></path>
            <path d="M10.4285714,8.57142857 L10.4285714,2.17142857 C10.4285714,1.6 10.8857143,1.25714286 11.3428571,1.25714286 L17.1714286,1.25714286 L21.4,5.48571429 L21.4,9.37142857 C21.7428571,9.48571429 22.2,9.6 22.5428571,9.71428571 L22.5428571,5.02857143 L17.6285714,0.114285714 L11.2285714,0.114285714 C10.0857143,0.114285714 9.17142857,1.02857143 9.17142857,2.17142857 L9.17142857,7.42857143 L10.4285714,8.57142857 Z" id="XMLID_3_" fill="#CCCCCC" fill-rule="nonzero"></path>
            <polyline id="XMLID_1_" fill="#CCCCCC" fill-rule="nonzero" points="17.1714286 1.25714286 17.1714286 5.48571429 21.5142857 5.48571429"></polyline>
            <path d="M20.5714286,10.4285714 L11.4285714,10.4285714 L8,7 L2.28571429,7 C1.02857143,7 0,8.02857143 0,9.28571429 L0,20.7142857 C0,21.9714286 1.02857143,23 2.28571429,23 L20.5714286,23 C21.8285714,23 22.8571429,21.9714286 22.8571429,20.7142857 L22.8571429,12.7142857 C22.8571429,11.3428571 21.8285714,10.4285714 20.5714286,10.4285714 Z" id="XMLID_11_" fill="#CCCCCC" fill-rule="nonzero"></path>
            <g id="tools-cross-settings-symbol-for-interface" transform="translate(9.000000, 13.000000)" fill-rule="nonzero" fill="#FFFFFF">
                <path d="M5.8219115,5.38559735 L3.76104425,3.32465044 C3.74174336,3.30526991 3.72110177,3.28807965 3.69984956,3.27199115 L4.06485398,2.88764602 C4.0835177,2.86884956 4.10117257,2.84908407 4.11742035,2.82876106 C4.602,3.01154867 5.17060619,2.90879204 5.56010177,2.51934956 C5.84419912,2.23515929 5.98746903,1.84218584 5.95279646,1.44112832 C5.94903982,1.39574336 5.91897345,1.35650442 5.87621681,1.34101327 C5.83336726,1.32536283 5.78535398,1.3360354 5.75311062,1.36815929 L5.09261947,2.02861062 L4.42389823,1.86003982 L4.23424779,1.17021239 L4.89457965,0.509840708 C4.9269823,0.477544248 4.93757522,0.42949115 4.9219646,0.38669469 C4.90642035,0.343778761 4.86719469,0.313964602 4.82167699,0.309969027 C4.42065929,0.275402655 4.02765929,0.41859292 3.74345575,0.702783186 C3.35429204,1.0919469 3.25126991,1.66024779 3.43385841,2.14462832 C3.414,2.16142035 3.39423451,2.17927434 3.37485398,2.19837611 L2.83762832,2.71433628 L1.85109292,1.72789381 C1.83877434,1.7155354 1.82563274,1.70466372 1.81209292,1.69445575 C1.82366814,1.67414602 1.83492478,1.65323894 1.84543805,1.6315354 C2.05379204,1.67163717 2.43468584,1.26590708 2.75818142,0.942530973 L1.81575664,0 C1.39433628,0.421486726 1.08661062,0.704349558 1.1265531,0.91270354 C1.03020796,0.959774336 0.944323009,1.01733186 0.883287611,1.0784469 L0.750530973,1.21116372 C0.664340708,1.29747345 0.612358407,1.40480973 0.593800885,1.51665929 C0.580924779,1.53136726 0.567823009,1.54685841 0.554800885,1.56342478 L0.505327434,1.62560177 C0.503946903,1.62712832 0.499685841,1.63324779 0.498504425,1.63481416 L0.453663717,1.6975885 C0.425615044,1.73500885 0.401097345,1.77565487 0.377389381,1.81488053 C0.368641593,1.82944248 0.359734513,1.84403097 0.350641593,1.85857965 C0.34919469,1.8610885 0.347774336,1.86355752 0.346486726,1.86603982 L0.326561947,1.90357965 C0.302482301,1.94873894 0.277486726,1.99549115 0.25610177,2.0469292 L0.252650442,2.05511947 C0.227429204,2.11502655 0.201292035,2.17705752 0.183053097,2.24280531 L0.174225664,2.27125221 C0.167004425,2.29464159 0.159663717,2.31797788 0.152920354,2.34586726 L0.13460177,2.4365708 C0.120942478,2.49329204 0.116349558,2.54924336 0.112353982,2.59879646 L0.109685841,2.63135841 C0.102942478,2.68274336 0.10490708,2.73119469 0.106738938,2.77395133 C0.107362832,2.78827434 0.107920354,2.80231858 0.108345133,2.82126106 C0.108823009,2.82914602 0.108902655,2.83683186 0.109141593,2.8444115 C0.109606195,2.86351327 0.110123894,2.88521681 0.113814159,2.9080354 L0.125309735,2.98164159 C0.127778761,2.99587168 0.129862832,3.00969027 0.131827434,3.02293805 C0.136221239,3.05283186 0.140734513,3.08374779 0.149641593,3.11309735 L0.197853982,3.28038053 C0.212721239,3.33122124 0.261013274,3.36488496 0.313858407,3.36119469 C0.341827434,3.35924336 0.366969027,3.34715044 0.385685841,3.32839381 C0.40239823,3.31168142 0.413973451,3.28971239 0.417504425,3.2649292 L0.4425,3.09485841 C0.444345133,3.08135841 0.450146018,3.06159292 0.456146018,3.04067257 C0.460420354,3.02616372 0.464575221,3.01136283 0.467787611,2.99873894 L0.485561947,2.93526106 C0.487725664,2.92667257 0.491920354,2.91830973 0.495610619,2.90972124 C0.499141593,2.90175664 0.502672566,2.8935531 0.505818584,2.88546903 C0.511778761,2.87196903 0.517393805,2.8584823 0.522915929,2.84463717 C0.533867257,2.81749115 0.544221239,2.79195133 0.560030973,2.76687611 C0.56690708,2.75530088 0.573292035,2.74380531 0.579809735,2.7320708 C0.596283186,2.70257522 0.611933628,2.67472566 0.630530973,2.65164159 C0.631699115,2.65027434 0.632761062,2.64874779 0.633982301,2.64712832 L0.675915929,2.58930531 C0.684504425,2.57843363 0.694154867,2.56815929 0.703539823,2.55780531 C0.71020354,2.55050442 0.716880531,2.54316372 0.725309735,2.53351327 C0.750066372,2.50373894 0.779137168,2.47777434 0.807185841,2.45222124 L0.822212389,2.43872124 C0.843,2.41942035 0.867053097,2.40126106 0.892353982,2.38206637 C0.902707965,2.37432743 0.912836283,2.36664159 0.922792035,2.35907522 C0.935575221,2.35079204 0.947946903,2.34252212 0.960132743,2.33431858 C0.982964602,2.31889381 1.00273009,2.3055531 1.02557522,2.29367257 L1.07528761,2.26538496 L1.12558407,2.24072124 C1.14311947,2.23165487 1.16038938,2.22467257 1.17630531,2.21824779 C1.18575664,2.21431858 1.19510177,2.21050885 1.20376991,2.20675221 C1.21259735,2.20369912 1.22110619,2.20039381 1.22915044,2.19742035 C1.2399292,2.19349115 1.24923451,2.18972124 1.26187168,2.1864292 L1.27543805,2.18337611 C1.29022566,2.20730973 1.30756195,2.23006195 1.32836283,2.25084956 L2.30422566,3.22675221 L0.220977876,5.22772566 C0.220154867,5.22850885 0.219371681,5.22937168 0.218615044,5.2300885 C-0.040619469,5.48932301 -0.0828318584,5.86899558 0.176442478,6.12830973 C0.435716814,6.38754425 0.791256637,6.32107965 1.05042478,6.06193805 C1.05156637,6.06083628 1.05254867,6.05981416 1.05355752,6.05863274 L2.89136283,4.12347345 C2.90214159,4.13617699 2.91281416,4.14896018 2.92478761,4.16096018 L4.98549558,6.22184071 C5.21641593,6.45282743 5.59097788,6.45282743 5.82189823,6.22184071 C6.05275221,5.991 6.05275221,5.61642478 5.8219115,5.38559735 Z M0.781473451,5.84819469 C0.686017699,5.94375664 0.531185841,5.94375664 0.435650442,5.84819469 C0.340207965,5.75271239 0.340207965,5.59797345 0.435650442,5.50249115 C0.53109292,5.40707522 0.685938053,5.40700885 0.781473451,5.50249115 C0.876836283,5.59798673 0.876836283,5.75271239 0.781473451,5.84819469 Z" id="Shape"></path>
            </g>
        </g>
    </g>
</svg>