<?xml version="1.0" encoding="UTF-8" standalone="no"?>
<svg width="22px" height="22px" viewBox="0 0 22 22" version="1.1" xmlns="http://www.w3.org/2000/svg" xmlns:xlink="http://www.w3.org/1999/xlink">
    <!-- Generator: Sketch 43.2 (39069) - http://www.bohemiancoding.com/sketch -->
    <title>magnify</title>
    <desc>Created with Sketch.</desc>
    <defs></defs>
    <g id="Symbols" stroke="none" stroke-width="1" fill="none" fill-rule="evenodd">
        <g id="magnify" fill-rule="nonzero" fill="#CCCCCC">
            <path d="M7.94444444,9.86864911e-17 C12.33204,1.72701359e-15 15.8888889,3.55684893 15.8888889,7.94444444 C15.8888889,9.91222222 15.1677778,11.7211111 13.9822222,13.1144444 L14.3122222,13.4444444 L15.2777778,13.4444444 L21.3888889,19.5555556 L19.5555556,21.3888889 L13.4444444,15.2777778 L13.4444444,14.3122222 L13.1144444,13.9822222 C11.7211111,15.1677778 9.91222222,15.8888889 7.94444444,15.8888889 C3.55684893,15.8888889 1.43095412e-15,12.33204 8.8817842e-16,7.94444444 C-1.82570008e-15,3.55684893 3.55684893,9.86864911e-17 7.94444444,-4.4408921e-16 L7.94444444,9.86864911e-17 Z M7.94444444,2.44444444 C4.88888889,2.44444444 2.44444444,4.88888889 2.44444444,7.94444444 C2.44444444,11 4.88888889,13.4444444 7.94444444,13.4444444 C11,13.4444444 13.4444444,11 13.4444444,7.94444444 C13.4444444,4.88888889 11,2.44444444 7.94444444,2.44444444 Z" id="Shape"></path>
        </g>
    </g>
</svg>