<?xml version="1.0" encoding="utf-8"?>
<!-- Generator: Adobe Illustrator 18.0.0, SVG Export Plug-In . SVG Version: 6.00 Build 0)  -->
<!DOCTYPE svg PUBLIC "-//W3C//DTD SVG 1.1//EN" "http://www.w3.org/Graphics/SVG/1.1/DTD/svg11.dtd">
<svg version="1.1" id="Layer_1" xmlns="http://www.w3.org/2000/svg" xmlns:xlink="http://www.w3.org/1999/xlink" x="0px" y="0px"
	 viewBox="0 0 22 22" enable-background="new 0 0 22 22" xml:space="preserve">
<title>magnify</title>
<desc>Created with Sketch.</desc>
<g id="Symbols">
	<g id="magnify">
		<path id="Shape" fill="#F6A623" d="M7.9,0c4.4,0,7.9,3.6,7.9,7.9c0,2-0.7,3.8-1.9,5.2l0.3,0.3h1l6.1,6.1l-1.8,1.8l-6.1-6.1v-1
			L13.1,14c-1.4,1.2-3.2,1.9-5.2,1.9C3.6,15.9,0,12.3,0,7.9S3.6,0,7.9,0L7.9,0z M7.9,2.4c-3.1,0-5.5,2.4-5.5,5.5s2.4,5.5,5.5,5.5
			s5.5-2.4,5.5-5.5S11,2.4,7.9,2.4z"/>
	</g>
</g>
</svg>
