<?xml version="1.0" encoding="utf-8"?>
<!-- Generator: Adobe Illustrator 18.0.0, SVG Export Plug-In . SVG Version: 6.00 Build 0)  -->
<!DOCTYPE svg PUBLIC "-//W3C//DTD SVG 1.1//EN" "http://www.w3.org/Graphics/SVG/1.1/DTD/svg11.dtd">
<svg version="1.1" id="Layer_1" xmlns="http://www.w3.org/2000/svg" xmlns:xlink="http://www.w3.org/1999/xlink" x="0px" y="0px"
	 viewBox="0 0 22 22" enable-background="new 0 0 22 22" xml:space="preserve">
<title>settings</title>
<desc>Created with Sketch.</desc>
<g id="Symbols">
	<g id="Menu" transform="translate(-29.000000, -425.000000)">
		<g id="settings" transform="translate(29.000000, 425.000000)">
			<path id="Shape" fill="#F6A623" d="M11,14.9c-2.1,0-3.8-1.7-3.8-3.9S8.9,7.2,11,7.2s3.9,1.7,3.9,3.8S13.1,14.9,11,14.9L11,14.9z
				 M19.2,12.1c0-0.4,0.1-0.7,0.1-1.1s0-0.7-0.1-1.1l2.3-1.8c0.2-0.2,0.3-0.5,0.1-0.7l-2.2-3.8c-0.1-0.2-0.4-0.3-0.7-0.2L16,4.5
				c-0.6-0.4-1.2-0.8-1.9-1.1l-0.4-2.9c0-0.3-0.3-0.5-0.6-0.5H8.8C8.5,0,8.3,0.2,8.3,0.5L7.8,3.4C7.2,3.7,6.6,4,6,4.5L3.2,3.4
				C3,3.3,2.7,3.4,2.6,3.6L0.4,7.4C0.2,7.6,0.3,7.9,0.5,8.1l2.3,1.8c0,0.4-0.1,0.7-0.1,1.1s0,0.7,0.1,1.1l-2.3,1.8
				c-0.2,0.2-0.3,0.5-0.1,0.7l2.2,3.8c0.1,0.2,0.4,0.3,0.7,0.2L6,17.5c0.6,0.4,1.2,0.8,1.9,1.1l0.4,2.9c0,0.3,0.3,0.5,0.6,0.5h4.4
				c0.3,0,0.5-0.2,0.6-0.5l0.4-2.9c0.7-0.3,1.3-0.6,1.9-1.1l2.7,1.1c0.2,0.1,0.5,0,0.7-0.2l2.2-3.8c0.1-0.2,0.1-0.5-0.1-0.7
				L19.2,12.1z"/>
		</g>
	</g>
</g>
</svg>
