<?xml version="1.0" encoding="UTF-8" standalone="no"?>
<svg width="22px" height="22px" viewBox="0 0 22 22" version="1.1" xmlns="http://www.w3.org/2000/svg" xmlns:xlink="http://www.w3.org/1999/xlink">
    <!-- Generator: Sketch 43.2 (39069) - http://www.bohemiancoding.com/sketch -->
    <title>settings</title>
    <desc>Created with Sketch.</desc>
    <defs></defs>
    <g id="Symbols" stroke="none" stroke-width="1" fill="none" fill-rule="evenodd">
        <g id="Menu" transform="translate(-29.000000, -425.000000)" fill-rule="nonzero" fill="#CCCCCC">
            <g id="settings" transform="translate(29.000000, 425.000000)">
                <path d="M11,14.85 C8.87370371,14.85 7.15,13.1262963 7.15,11 C7.15,8.87370371 8.87370371,7.15 11,7.15 C13.1262963,7.15 14.85,8.87370371 14.85,11 C14.85,13.1262963 13.1262963,14.85 11,14.85 L11,14.85 Z M19.173,12.067 C19.217,11.715 19.25,11.363 19.25,11 C19.25,10.637 19.217,10.274 19.173,9.9 L21.494,8.107 C21.703,7.942 21.758,7.645 21.626,7.403 L19.426,3.597 C19.294,3.355 18.997,3.256 18.755,3.355 L16.016,4.455 C15.444,4.026 14.85,3.652 14.157,3.377 L13.75,0.462 C13.706,0.198 13.475,0 13.2,0 L8.8,0 C8.525,0 8.294,0.198 8.25,0.462 L7.843,3.377 C7.15,3.652 6.556,4.026 5.984,4.455 L3.245,3.355 C3.003,3.256 2.706,3.355 2.574,3.597 L0.374,7.403 C0.231,7.645 0.297,7.942 0.506,8.107 L2.827,9.9 C2.783,10.274 2.75,10.637 2.75,11 C2.75,11.363 2.783,11.715 2.827,12.067 L0.506,13.893 C0.297,14.058 0.231,14.355 0.374,14.597 L2.574,18.403 C2.706,18.645 3.003,18.733 3.245,18.645 L5.984,17.534 C6.556,17.974 7.15,18.348 7.843,18.623 L8.25,21.538 C8.294,21.802 8.525,22 8.8,22 L13.2,22 C13.475,22 13.706,21.802 13.75,21.538 L14.157,18.623 C14.85,18.337 15.444,17.974 16.016,17.534 L18.755,18.645 C18.997,18.733 19.294,18.645 19.426,18.403 L21.626,14.597 C21.758,14.355 21.703,14.058 21.494,13.893 L19.173,12.067 Z" id="Shape"></path>
            </g>
        </g>
    </g>
</svg>