<?xml version="1.0" encoding="UTF-8" standalone="no"?>
<svg width="22px" height="25px" viewBox="0 0 22 25" version="1.1" xmlns="http://www.w3.org/2000/svg" xmlns:xlink="http://www.w3.org/1999/xlink">
    <!-- Generator: Sketch 43.2 (39069) - http://www.bohemiancoding.com/sketch -->
    <title>bell</title>
    <desc>Created with Sketch.</desc>
    <defs></defs>
    <g id="Symbols" stroke="none" stroke-width="1" fill="none" fill-rule="evenodd">
        <g id="Menu" transform="translate(-29.000000, -491.000000)" fill-rule="nonzero" fill="#CCCCCC">
            <g id="bell" transform="translate(29.000000, 491.000000)">
                <path d="M13.4444444,22 C13.4444444,23.3500294 12.3500294,24.4444444 11,24.4444444 C9.64997061,24.4444444 8.55555556,23.3500294 8.55555556,22 L13.4444444,22 L13.4444444,22 Z M11,0 C11.6750147,0 12.2222222,0.547207528 12.2222222,1.22222222 L12.2222222,2.54222222 C15.6933333,3.12888889 18.3333333,6.14777778 18.3333333,9.77777778 L18.3333333,17.1111111 L22,20.7777778 L0,20.7777778 L3.66666667,17.1111111 L3.66666667,9.77777778 C3.66666667,6.14777778 6.30666667,3.12888889 9.77777778,2.54222222 L9.77777778,1.22222222 C9.77777778,0.547207528 10.3249853,0 11,0 Z" id="Shape"></path>
            </g>
        </g>
    </g>
</svg>