<?xml version="1.0" encoding="UTF-8" standalone="no"?>
<svg width="13px" height="13px" viewBox="0 0 13 13" version="1.1" xmlns="http://www.w3.org/2000/svg" xmlns:xlink="http://www.w3.org/1999/xlink">
    <!-- Generator: Sketch 43.2 (39069) - http://www.bohemiancoding.com/sketch -->
    <title>Calendar Alert</title>
    <desc>Created with Sketch.</desc>
    <defs></defs>
    <g id="Datalyst-Screens" stroke="none" stroke-width="1" fill="none" fill-rule="evenodd">
        <g id="00125.AllRoles_Dashboard-Portrait" transform="translate(-403.000000, -118.000000)" fill="#9B9B9B">
            <path d="M412.402899,120.369697 L413.336232,120.369697 L413.336232,118 L412.402899,118 L412.402899,120.369697 Z M406.402899,120.369697 L407.336232,120.369697 L407.336232,118 L406.402899,118 L406.402899,120.369697 Z M405.202899,129.151515 L414.536232,129.151515 L414.536232,123.575758 L405.202899,123.575758 L405.202899,129.151515 Z M414.536232,119.393939 L413.936232,119.393939 L413.936232,120.787879 L411.802899,120.787879 L411.802899,119.393939 L407.936232,119.393939 L407.936232,120.787879 L405.802899,120.787879 L405.802899,119.393939 L405.202899,119.393939 C404.469565,119.393939 403.869565,120.021212 403.869565,120.787879 L403.869565,129.151515 C403.869565,129.918182 404.469565,130.545455 405.202899,130.545455 L414.536232,130.545455 C415.269565,130.545455 415.869565,129.918182 415.869565,129.151515 L415.869565,120.787879 C415.869565,120.021212 415.269565,119.393939 414.536232,119.393939 L414.536232,119.393939 Z" id="Calendar-Alert"></path>
        </g>
    </g>
</svg>