<?xml version="1.0" encoding="UTF-8" standalone="no"?>
<svg width="24px" height="20px" viewBox="0 0 24 20" version="1.1" xmlns="http://www.w3.org/2000/svg" xmlns:xlink="http://www.w3.org/1999/xlink">
    <!-- Generator: Sketch 43.2 (39069) - http://www.bohemiancoding.com/sketch -->
    <title>Shape</title>
    <desc>Created with Sketch.</desc>
    <defs></defs>
    <g id="Datalyst-Screens" stroke="none" stroke-width="1" fill="none" fill-rule="evenodd">
        <g id="01435.FW_PJT_GWD_Visual-Inspection-&amp;-Fluid-Level--Measurement_Portrait" transform="translate(-539.000000, -154.000000)" fill="#008DD6">
            <path d="M550.998788,161.198061 C549.009898,161.198061 547.399152,162.811231 547.399152,164.797697 C547.399152,166.786587 549.01111,168.398546 550.998788,168.398546 C552.986466,168.398546 554.599636,166.786587 554.599636,164.797697 C554.599636,162.811231 552.987678,161.198061 550.998788,161.198061 L550.998788,161.198061 Z M560.59903,157.598424 L557.719321,157.598424 C557.322998,157.598424 556.896374,157.291789 556.771538,156.916069 L556.027371,154.682355 C555.901323,154.306636 555.475912,154 555.079588,154 L546.9192,154 C546.522876,154 546.096253,154.306636 545.971417,154.682355 L545.22725,156.916069 C545.101202,157.291789 544.674578,157.598424 544.279467,157.598424 L541.399758,157.598424 C540.079891,157.598424 539,158.678315 539,159.998182 L539,170.798303 C539,172.11817 540.079891,173.198061 541.399758,173.198061 L560.600242,173.198061 C561.920109,173.198061 563,172.11817 563,170.798303 L563,159.998182 C563,158.678315 561.918897,157.598424 560.59903,157.598424 L560.59903,157.598424 Z M550.998788,170.798303 C547.685183,170.798303 544.999394,168.112514 544.999394,164.797697 C544.999394,161.485305 547.685183,158.798303 550.998788,158.798303 C554.312393,158.798303 556.999394,161.485305 556.999394,164.797697 C556.999394,168.112514 554.312393,170.798303 550.998788,170.798303 L550.998788,170.798303 Z M559.759115,161.6768 C559.296132,161.6768 558.920412,161.299869 558.920412,160.836885 C558.920412,160.373902 559.296132,159.99697 559.759115,159.99697 C560.223311,159.99697 560.59903,160.373902 560.59903,160.836885 C560.59903,161.299869 560.223311,161.6768 559.759115,161.6768 L559.759115,161.6768 Z" id="Shape"></path>
        </g>
    </g>
</svg>