<?xml version="1.0" encoding="UTF-8" standalone="no"?>
<svg width="21px" height="21px" viewBox="0 0 21 21" version="1.1" xmlns="http://www.w3.org/2000/svg" xmlns:xlink="http://www.w3.org/1999/xlink">
    <!-- Generator: Sketch 43.2 (39069) - http://www.bohemiancoding.com/sketch -->
    <title>delete-circle copy</title>
    <desc>Created with Sketch.</desc>
    <defs></defs>
    <g id="Datalyst-Screens" stroke="none" stroke-width="1" fill="none" fill-rule="evenodd">
        <g id="01440.FW_PJT_GWD_GroundWaterSampling_Portait-" transform="translate(-541.000000, -404.000000)" fill="#008DD6">
            <g id="Group-16" transform="translate(526.000000, 389.000000)">
                <g id="delete-circle-copy" transform="translate(15.000000, 15.000000)">
                    <path d="M10.2857143,0 C4.62857143,0 0,4.62857143 0,10.2857143 C0,15.9428571 4.62857143,20.5714286 10.2857143,20.5714286 C15.9428571,20.5714286 20.5714286,15.9428571 20.5714286,10.2857143 C20.5714286,4.62857143 15.9428571,0 10.2857143,0 L10.2857143,0 Z M13.1949536,14.6495733 L10.2857143,11.7403339 L7.37647496,14.6495733 L5.92185529,13.1949536 L8.83109462,10.2857143 L5.92185529,7.37647496 L7.37647496,5.92185529 L10.2857143,8.83109462 L13.1949536,5.92185529 L14.6495733,7.37647496 L11.7403339,10.2857143 L14.6495733,13.1949536 L13.1949536,14.6495733 L13.1949536,14.6495733 Z" id="Shape"></path>
                </g>
            </g>
        </g>
    </g>
</svg>