<?xml version="1.0" encoding="UTF-8" standalone="no"?>
<svg width="22px" height="21px" viewBox="0 0 22 21" version="1.1" xmlns="http://www.w3.org/2000/svg" xmlns:xlink="http://www.w3.org/1999/xlink">
    <!-- Generator: Sketch 43.2 (39069) - http://www.bohemiancoding.com/sketch -->
    <title>Group 4</title>
    <desc>Created with Sketch.</desc>
    <defs></defs>
    <g id="Symbols" stroke="none" stroke-width="1" fill="none" fill-rule="evenodd">
        <g id="Menu" transform="translate(-29.000000, -227.000000)" fill-rule="nonzero" fill="#CCCCCC">
            <g id="Group-4" transform="translate(29.000000, 227.000000)">
                <g id="brief">
                    <path d="M11.77,14.96 L11.77,16.39 L10.23,16.39 L10.23,14.96 L0,14.96 L0,18.7 C0,19.91 0.99,20.9 2.2,20.9 L19.8,20.9 C21.01,20.9 22,19.91 22,18.7 L22,14.96 L11.77,14.96 Z" id="XMLID_2_"></path>
                    <path d="M10.23,13.97 L10.23,12.87 L11.77,12.87 L11.77,13.97 L22,13.97 L22,6.6 C22,5.39 21.01,4.4 19.8,4.4 L15.4,4.4 L15.4,2.2 L13.2,0 L8.8,0 L6.6,2.2 L6.6,4.4 L2.2,4.4 C0.99,4.4 0,5.39 0,6.6 L0,13.97 L10.23,13.97 Z M8.8,2.2 L13.2,2.2 L13.2,4.4 L8.8,4.4 L8.8,2.2 Z" id="XMLID_9_"></path>
                </g>
            </g>
        </g>
    </g>
</svg>