<?xml version="1.0" encoding="UTF-8" standalone="no"?>
<svg width="21px" height="19px" viewBox="0 0 21 19" version="1.1" xmlns="http://www.w3.org/2000/svg" xmlns:xlink="http://www.w3.org/1999/xlink">
    <!-- Generator: Sketch 43.2 (39069) - http://www.bohemiancoding.com/sketch -->
    <title>Shape</title>
    <desc>Created with Sketch.</desc>
    <defs></defs>
    <g id="Datalyst-Screens" stroke="none" stroke-width="1" fill="none" fill-rule="evenodd">
        <g id="01435.FW_PJT_GWD_Visual-Inspection-&amp;-Fluid-Level--Measurement_Portrait" transform="translate(-556.000000, -50.000000)" fill="#4990E2">
            <path d="M567.887406,50.2857143 L567.887406,50.2857143 C562.55343,50.2857143 559.195408,52.0365407 559.420447,53.4424281 C559.485214,53.8438116 559.664148,54.9371635 559.891382,56.3137834 C557.277635,57.2796124 556.412607,58.8475167 556.527871,60.1237907 C556.66509,61.6362957 558.093265,63.2554181 561.231737,63.534505 C563.023268,63.693386 565.179253,62.7589151 566.575593,61.160698 C566.442765,60.9453725 566.364824,60.6965984 566.364824,60.4290094 C566.364824,59.628333 567.046528,58.9802659 567.887406,58.9802659 C568.727186,58.9802659 569.40889,59.6293782 569.40889,60.4290094 C569.40889,61.2171426 568.745848,61.8578928 567.922534,61.8767076 C566.25944,63.918119 563.729122,65.1494464 561.330535,65.0062445 C561.38652,65.3428213 561.407377,65.4703441 561.434821,65.6407231 C561.533619,66.2386172 563.985996,68.0835179 567.888504,68.0866537 L567.888504,68.0866537 C571.791011,68.0835179 574.243389,66.2386172 574.341089,65.6407231 C574.437691,65.0449195 576.126033,54.8702663 576.354366,53.4424281 C576.579405,52.0365407 573.220284,50.2857143 567.887406,50.2857143 L567.887406,50.2857143 Z M558.043866,59.9994036 C557.98349,59.3346122 558.537854,58.4503143 560.133985,57.7855229 C560.363416,59.1725955 560.613703,60.6809193 560.832156,62.0042305 C559.090023,61.6770612 558.117415,60.8126233 558.043866,59.9994036 L558.043866,59.9994036 Z M567.887406,55.5894117 C563.984899,55.5873211 561.217466,54.2075654 561.217466,53.6932928 C561.215271,53.1811108 563.985996,51.7992645 567.887406,51.8024003 C571.788816,51.8003098 574.559541,53.1811108 574.557346,53.6932928 C574.557346,54.2075654 571.788816,55.5873211 567.887406,55.5894117 L567.887406,55.5894117 Z" id="Shape"></path>
        </g>
    </g>
</svg>