<?xml version="1.0" encoding="UTF-8" standalone="no"?>
<svg width="13px" height="21px" viewBox="0 0 13 21" version="1.1" xmlns="http://www.w3.org/2000/svg" xmlns:xlink="http://www.w3.org/1999/xlink">
    <!-- Generator: Sketch 43.2 (39069) - http://www.bohemiancoding.com/sketch -->
    <title>Shape</title>
    <desc>Created with Sketch.</desc>
    <defs></defs>
    <g id="Datalyst-Screens" stroke="none" stroke-width="1" fill="none" fill-rule="evenodd">
        <g id="01435.FW_PJT_GWD_Visual-Inspection-&amp;-Fluid-Level--Measurement_Portrait" transform="translate(-474.000000, -50.000000)" fill="#4990E2">
            <path d="M483.287949,60.3501887 L483.287949,51.305658 C483.287949,50.7421133 482.78841,50.2857143 482.171598,50.2857143 L478.376006,50.2857143 C477.759194,50.2857143 477.482925,50.7421133 477.482925,51.305658 L477.482925,60.3501887 C475.620085,61.2877127 474.357143,63.0978551 474.357143,65.1789523 C474.357143,68.2212691 477.056682,70.6876783 480.386564,70.6876783 C483.716447,70.6876783 486.415986,68.2212691 486.415986,65.1789523 C486.413731,63.0978551 485.150789,61.2877127 483.287949,60.3501887 L483.287949,60.3501887 Z M480.384309,68.6467608 C478.288051,68.6467608 476.588717,67.0941798 476.588717,65.1789523 C476.588717,63.5934035 477.753555,62.260265 479.342382,61.8461061 L479.342382,54.3665192 L481.575083,54.3665192 L481.575083,61.8873159 C483.087231,62.343715 484.179902,63.6438856 484.179902,65.1789523 C484.181029,67.0941798 482.481695,68.6467608 480.384309,68.6467608 L480.384309,68.6467608 Z" id="Shape"></path>
        </g>
    </g>
</svg>