<?xml version="1.0" encoding="UTF-8" standalone="no"?>
<svg width="16px" height="18px" viewBox="0 0 16 18" version="1.1" xmlns="http://www.w3.org/2000/svg" xmlns:xlink="http://www.w3.org/1999/xlink">
    <!-- Generator: Sketch 43.2 (39069) - http://www.bohemiancoding.com/sketch -->
    <title>Shape</title>
    <desc>Created with Sketch.</desc>
    <defs></defs>
    <g id="Datalyst-Screens" stroke="none" stroke-width="1" fill="none" fill-rule="evenodd">
        <g id="01435.FW_PJT_GWD_Visual-Inspection-&amp;-Fluid-Level--Measurement_Portrait" transform="translate(-516.000000, -51.000000)" fill="#EDEDED">
            <path d="M530.726744,62.467819 C529.858171,63.8059524 527.084978,64.7835524 523.798963,64.7835524 C520.512948,64.7835524 517.740795,63.8059524 516.872222,62.467819 C516.688105,62.1845429 516.590326,62.3360857 516.590326,62.4767333 L516.590326,64.4398571 C516.590326,66.340581 519.81913,68.312619 523.800003,68.312619 C527.781917,68.312619 531.00968,66.3415714 531.00968,64.4398571 L531.00968,62.4767333 C531.00968,62.3370762 530.91086,62.1845429 530.726744,62.467819 L530.726744,62.467819 Z M530.738186,57.4520476 C529.884176,58.6346762 527.100581,59.5013429 523.798963,59.5013429 C520.498385,59.5013429 517.71479,58.6346762 516.85974,57.4520476 C516.683945,57.2083905 516.589286,57.3411143 516.589286,57.4510571 L516.589286,59.7618381 C516.589286,61.490219 519.818089,62.8917429 523.798963,62.8917429 C527.780876,62.8917429 531.00864,61.490219 531.00864,59.7618381 L531.00864,57.4510571 C531.00864,57.3401238 530.915021,57.2083905 530.738186,57.4520476 L530.738186,57.4520476 Z M523.798963,51.0535714 C519.818089,51.0535714 516.589286,52.2094571 516.589286,53.6347524 L516.589286,54.8698762 C516.589286,56.3823333 519.818089,57.6085429 523.798963,57.6085429 C527.780876,57.6085429 531.00864,56.3823333 531.00864,54.8698762 L531.00864,53.6347524 C531.00864,52.2084667 527.780876,51.0535714 523.798963,51.0535714 L523.798963,51.0535714 Z" id="Shape"></path>
        </g>
    </g>
</svg>