<?xml version="1.0" encoding="UTF-8" standalone="no"?>
<svg width="20px" height="21px" viewBox="0 0 20 21" version="1.1" xmlns="http://www.w3.org/2000/svg" xmlns:xlink="http://www.w3.org/1999/xlink">
    <!-- Generator: Sketch 43.2 (39069) - http://www.bohemiancoding.com/sketch -->
    <title>Shape</title>
    <desc>Created with Sketch.</desc>
    <defs></defs>
    <g id="Datalyst-Screens" stroke="none" stroke-width="1" fill="none" fill-rule="evenodd">
        <g id="01435.FW_PJT_GWD_Visual-Inspection-&amp;-Fluid-Level--Measurement_Portrait" transform="translate(-427.000000, -52.000000)" fill="#EDEDED">
            <path d="M430.973426,52.6806571 C430.957823,52.5588286 430.747701,52.5588286 430.732098,52.6806571 C430.205753,56.7158571 427.517857,57.5478571 427.517857,60.3518952 C427.517857,62.0852286 429.044882,63.4897238 430.852762,63.4897238 C432.661682,63.4897238 434.187667,62.0852286 434.187667,60.3518952 C434.186626,57.5478571 431.498731,56.7158571 430.973426,52.6806571 L430.973426,52.6806571 Z M443.666036,52.6806571 C443.649393,52.5588286 443.440311,52.5588286 443.424708,52.6806571 C442.899403,56.7158571 440.210467,57.5478571 440.210467,60.3518952 C440.210467,62.0852286 441.737491,63.4897238 443.545372,63.4897238 C445.353252,63.4897238 446.880277,62.0852286 446.880277,60.3518952 C446.880277,57.5478571 444.192381,56.7158571 443.666036,52.6806571 L443.666036,52.6806571 Z M437.078403,61.3928857 C436.552058,65.4290762 433.864162,66.2600857 433.864162,69.0651143 C433.864162,70.7984476 435.390146,72.2029429 437.198027,72.2029429 C439.006947,72.2029429 440.532931,70.7984476 440.532931,69.0651143 C440.532931,66.2600857 437.845036,65.4290762 437.319731,61.3928857 C437.303088,61.2710571 437.094006,61.2710571 437.078403,61.3928857 L437.078403,61.3928857 Z" id="Shape"></path>
        </g>
    </g>
</svg>