<?xml version="1.0" encoding="UTF-8" standalone="no"?>
<svg width="19px" height="15px" viewBox="0 0 19 15" version="1.1" xmlns="http://www.w3.org/2000/svg" xmlns:xlink="http://www.w3.org/1999/xlink">
    <!-- Generator: Sketch 43.2 (39069) - http://www.bohemiancoding.com/sketch -->
    <title>Shape</title>
    <desc>Created with Sketch.</desc>
    <defs></defs>
    <g id="Datalyst-Screens" stroke="none" stroke-width="1" fill="none" fill-rule="evenodd">
        <g id="01435.FW_PJT_GWD_Visual-Inspection-&amp;-Fluid-Level--Measurement_Portrait" transform="translate(-386.000000, -52.000000)" fill="#FFFFFF">
            <path d="M387.746739,55.8513456 C389.546621,54.380224 390.96884,53.2162053 394.826623,55.2926166 C396.679565,56.2892148 398.173571,56.6656634 399.417883,56.6656634 C401.597509,56.6656634 403.008284,55.5115512 404.228666,54.511981 C404.664592,54.1563362 404.720773,53.5242987 404.354554,53.1012894 C403.987295,52.67828 403.338089,52.6228034 402.902164,52.9794389 C401.103322,54.4515511 399.681103,55.6145792 395.82228,53.5391586 C390.726428,50.7980182 388.338723,52.7505978 386.420236,54.3197941 C385.985351,54.675439 385.92917,55.3084671 386.295389,55.7314764 C386.661608,56.1544858 387.311854,56.2079811 387.746739,55.8513456 L387.746739,55.8513456 Z M402.903204,57.9871962 C401.104362,59.4593084 399.682143,60.6223365 395.82332,58.5469158 C390.727469,55.8057755 388.339764,57.7583551 386.421277,59.3275514 C385.986392,59.6831963 385.93021,60.3152337 386.296429,60.7382431 C386.662648,61.1622431 387.312895,61.2167291 387.747779,60.8610842 C389.547662,59.388972 390.969881,58.2259439 394.827663,60.3013645 C396.680605,61.2979627 398.174612,61.6744114 399.418923,61.6744114 C401.598549,61.6744114 403.009324,60.5202991 404.229707,59.5217196 C404.665632,59.1650841 404.721813,58.5330467 404.355594,58.1100373 C403.988335,57.6860373 403.339129,57.6315513 402.903204,57.9871962 L402.903204,57.9871962 Z M402.903204,62.9959441 C401.104362,64.4680564 399.682143,65.6310845 395.82332,63.5556638 C390.727469,60.8135328 388.339764,62.767103 386.421277,64.3353087 C385.986392,64.6909536 385.93021,65.3239816 386.296429,65.746991 C386.662648,66.1700004 387.312895,66.2244864 387.747779,65.8688415 C389.547662,64.3967293 390.969881,63.2337012 394.827663,65.3091218 C396.680605,66.30572 398.174612,66.6821686 399.418923,66.6821686 C401.598549,66.6821686 403.009324,65.5280564 404.229707,64.5294769 C404.665632,64.1738321 404.721813,63.540804 404.355594,63.1177946 C403.988335,62.6937946 403.339129,62.6402993 402.903204,62.9959441 L402.903204,62.9959441 Z" id="Shape"></path>
        </g>
    </g>
</svg>