<?xml version="1.0" encoding="UTF-8" standalone="no"?>
<svg width="14px" height="15px" viewBox="0 0 14 15" version="1.1" xmlns="http://www.w3.org/2000/svg" xmlns:xlink="http://www.w3.org/1999/xlink">
    <!-- Generator: Sketch 43.2 (39069) - http://www.bohemiancoding.com/sketch -->
    <title>Project Alert Copy</title>
    <desc>Created with Sketch.</desc>
    <defs></defs>
    <g id="Datalyst-Screens" stroke="none" stroke-width="1" fill="none" fill-rule="evenodd">
        <g id="00140.AllRoles_Dashboard-v5-Copy" transform="translate(-121.000000, -145.000000)" fill="#9B9B9B">
            <path d="M133.332666,154.762547 C133.100324,154.857196 131.538018,153.622036 130.539531,151.293039 C129.541369,148.964529 129.666788,146.835727 129.898806,146.74124 C130.130823,146.646753 131.654676,148.136589 132.653001,150.465099 C133.651163,152.793608 133.565008,154.667897 133.332666,154.762547 M133.779828,149.902568 C132.495131,146.906796 130.428065,144.624961 129.381877,145.051371 C127.605725,145.774741 130.440072,149.249942 121.718157,152.803529 C120.964829,153.110408 120.773861,154.338901 121.089113,155.073329 C121.403878,155.807595 122.434328,156.538446 123.18798,156.231567 C123.318105,156.17855 123.797067,156.024216 123.797067,156.024216 C124.335088,156.747911 124.898258,156.318573 125.097826,156.778485 C125.337794,157.331258 125.859914,158.532429 126.037091,158.941276 C126.214918,159.349635 126.617298,159.727908 126.90951,159.616671 C127.200749,159.505433 128.192908,159.126998 128.572573,158.982259 C128.951914,158.83752 129.042612,158.498603 128.926603,158.231079 C128.801346,157.942902 128.288636,157.858336 128.142611,157.522021 C127.996099,157.185543 127.518272,156.107807 127.380684,155.768076 C127.193772,155.30605 127.590798,154.930216 128.167597,154.870044 C132.13737,154.455342 132.879502,156.912653 134.231045,156.361832 C135.277071,155.935583 135.064199,152.898503 133.779828,149.902568" id="Project-Alert-Copy"></path>
        </g>
    </g>
</svg>