<?xml version="1.0" encoding="UTF-8" standalone="no"?>
<svg width="13px" height="13px" viewBox="0 0 13 13" version="1.1" xmlns="http://www.w3.org/2000/svg" xmlns:xlink="http://www.w3.org/1999/xlink">
    <!-- Generator: Sketch 43.2 (39069) - http://www.bohemiancoding.com/sketch -->
    <title>Project Alert</title>
    <desc>Created with Sketch.</desc>
    <defs></defs>
    <g id="Datalyst-Screens" stroke="none" stroke-width="1" fill="none" fill-rule="evenodd">
        <g id="00125.AllRoles_Dashboard-Portrait" transform="translate(-404.000000, -150.000000)" fill="#9B9B9B">
            <path d="M415.480751,158.367897 C415.280937,158.449025 413.937354,157.390316 413.078655,155.394033 C412.220235,153.398168 412.328096,151.57348 412.527631,151.492492 C412.727166,151.411503 414.03768,152.688505 414.896239,154.68437 C415.754659,156.680236 415.680566,158.286769 415.480751,158.367897 M415.86531,154.202201 C414.760471,151.634396 412.982795,149.678538 412.083073,150.044033 C410.555582,150.664064 412.99312,153.642807 405.492273,156.688739 C404.844412,156.951778 404.680179,158.004772 404.951296,158.634282 C405.221994,159.263653 406.108181,159.890096 406.756321,159.627057 C406.868228,159.581614 407.280136,159.449328 407.280136,159.449328 C407.742834,160.069638 408.22716,159.701634 408.398789,160.095844 C408.605161,160.56965 409.054185,161.599225 409.206557,161.949665 C409.359487,162.299688 409.705534,162.623922 409.956837,162.528575 C410.207303,162.433228 411.06056,162.108855 411.387072,161.984793 C411.713305,161.860731 411.791305,161.570231 411.691537,161.340925 C411.583816,161.093916 411.142885,161.021431 411.017304,160.733161 C410.891303,160.444751 410.480373,159.520977 410.362047,159.22978 C410.201303,158.833757 410.542745,158.511614 411.038792,158.460038 C414.452797,158.104579 415.09103,160.210846 416.253357,159.738713 C417.15294,159.373357 416.96987,156.770146 415.86531,154.202201" id="Project-Alert"></path>
        </g>
    </g>
</svg>