<?xml version="1.0" encoding="UTF-8" standalone="no"?>
<svg width="20px" height="23px" viewBox="0 0 20 23" version="1.1" xmlns="http://www.w3.org/2000/svg" xmlns:xlink="http://www.w3.org/1999/xlink">
    <!-- Generator: Sketch 43.2 (39069) - http://www.bohemiancoding.com/sketch -->
    <title>calendar</title>
    <desc>Created with Sketch.</desc>
    <defs></defs>
    <g id="Symbols" stroke="none" stroke-width="1" fill="none" fill-rule="evenodd">
        <g id="Menu" transform="translate(-30.000000, -159.000000)" fill-rule="nonzero" fill="#CCCCCC">
            <g id="calendar" transform="translate(30.000000, 159.000000)">
                <path d="M17.7777778,20 L2.22222222,20 L2.22222222,7.77777778 L17.7777778,7.77777778 L17.7777778,20 Z M14.4444444,0 L14.4444444,2.22222222 L5.55555556,2.22222222 L5.55555556,0 L3.33333333,0 L3.33333333,2.22222222 L2.22222222,2.22222222 C0.988888889,2.22222222 0,3.21111111 0,4.44444444 L0,20 C0,21.2272994 0.994922778,22.2222222 2.22222222,22.2222222 L17.7777778,22.2222222 C19.0050772,22.2222222 20,21.2272994 20,20 L20,4.44444444 C20,3.21111111 19,2.22222222 17.7777778,2.22222222 L16.6666667,2.22222222 L16.6666667,0 L14.4444444,0 Z M15.5555556,12.2222222 L10,12.2222222 L10,17.7777778 L15.5555556,17.7777778 L15.5555556,12.2222222 Z" id="Shape"></path>
            </g>
        </g>
    </g>
</svg>