<?xml version="1.0" encoding="UTF-8" standalone="no"?>
<svg width="26px" height="19px" viewBox="0 0 26 19" version="1.1" xmlns="http://www.w3.org/2000/svg" xmlns:xlink="http://www.w3.org/1999/xlink">
    <!-- Generator: Sketch 43.2 (39069) - http://www.bohemiancoding.com/sketch -->
    <title>Shape</title>
    <desc>Created with Sketch.</desc>
    <defs></defs>
    <g id="Datalyst-Screens" stroke="none" stroke-width="1" fill="none" fill-rule="evenodd">
        <g id="01435.FW_PJT_GWD_Visual-Inspection-&amp;-Fluid-Level--Measurement_Portrait" transform="translate(-538.000000, -206.000000)" fill="#008DD6">
            <path d="M564,208.653608 L564,207.061443 C564,206.474433 563.524349,206 562.93883,206 L539.06117,206 C538.474311,206 538,206.474433 538,207.061443 L538,208.653608 L540.652925,208.653608 L540.652925,211.307217 L538,211.307217 L538,213.960825 L540.652925,213.960825 L540.652925,216.614433 L538,216.614433 L538,219.268041 L540.652925,219.268041 L540.652925,221.92031 L538,221.92031 L538,223.512475 C538,224.099485 538.474311,224.573918 539.06117,224.573918 L562.93883,224.573918 C563.525689,224.573918 564,224.099485 564,223.512475 L564,221.92031 L561.347075,221.92031 L561.347075,219.268041 L564,219.268041 L564,216.614433 L561.347075,216.614433 L561.347075,213.960825 L564,213.960825 L564,211.307217 L561.347075,211.307217 L561.347075,208.653608 L564,208.653608 L564,208.653608 Z M548.079773,219.270722 L548.079773,211.308557 L554.713424,215.290309 L548.079773,219.270722 L548.079773,219.270722 Z" id="Shape"></path>
        </g>
    </g>
</svg>